<svg width="28" height="47" viewBox="0 0 28 47" fill="none" xmlns="http://www.w3.org/2000/svg">
<path d="M26.9444 0.00977914L20.2288 0C12.684 0 7.80824 4.53996 7.80824 11.5668V16.8998H1.05597C0.472492 16.8998 0 17.3291 0 17.8587V25.5856C0 26.1152 0.473031 26.544 1.05597 26.544H7.80824V46.0416C7.80824 46.5712 8.28073 47 8.86421 47H17.674C18.2575 47 18.73 46.5707 18.73 46.0416V26.544H26.6249C27.2084 26.544 27.6809 26.1152 27.6809 25.5856L27.6841 17.8587C27.6841 17.6044 27.5726 17.3609 27.3749 17.181C27.1772 17.001 26.9078 16.8998 26.6276 16.8998H18.73V12.3789C18.73 10.206 19.3005 9.10291 22.4194 9.10291L26.9434 9.10144C27.5263 9.10144 27.9988 8.67214 27.9988 8.14309V0.968135C27.9988 0.439572 27.5268 0.0107571 26.9444 0.00977914Z" fill="white"/>
</svg>
