<svg width="53" height="53" viewBox="0 0 53 53" fill="none" xmlns="http://www.w3.org/2000/svg">
<path d="M38.3723 0H14.6253C6.56091 0 0 6.56122 0 14.6256V38.3726C0 46.4373 6.56091 52.9982 14.6253 52.9982H38.3723C46.4373 52.9982 52.9982 46.437 52.9982 38.3726V14.6256C52.9985 6.56122 46.4373 0 38.3723 0ZM48.2963 38.3726C48.2963 43.8445 43.8445 48.296 38.3726 48.296H14.6253C9.15373 48.2963 4.70226 43.8445 4.70226 38.3726V14.6256C4.70226 9.15405 9.15373 4.70226 14.6253 4.70226H38.3723C43.8442 4.70226 48.296 9.15405 48.296 14.6256V38.3726H48.2963Z" fill="black"/>
<path d="M26.4991 12.8434C18.9689 12.8434 12.8428 18.9695 12.8428 26.4997C12.8428 34.0296 18.9689 40.1554 26.4991 40.1554C34.0293 40.1554 40.1554 34.0296 40.1554 26.4997C40.1554 18.9695 34.0293 12.8434 26.4991 12.8434ZM26.4991 35.4528C21.562 35.4528 17.545 31.4364 17.545 26.4994C17.545 21.562 21.5617 17.5453 26.4991 17.5453C31.4365 17.5453 35.4531 21.562 35.4531 26.4994C35.4531 31.4364 31.4361 35.4528 26.4991 35.4528Z" fill="black"/>
<path d="M40.7281 8.8562C39.8221 8.8562 38.9322 9.22298 38.2923 9.86562C37.6494 10.5051 37.2798 11.3954 37.2798 12.3045C37.2798 13.2108 37.6497 14.1008 38.2923 14.7434C38.9318 15.3829 39.8221 15.7528 40.7281 15.7528C41.6372 15.7528 42.5244 15.3829 43.167 14.7434C43.8097 14.1008 44.1764 13.2105 44.1764 12.3045C44.1764 11.3954 43.8097 10.5051 43.167 9.86562C42.5275 9.22298 41.6372 8.8562 40.7281 8.8562Z" fill="black"/>
</svg>
