<svg width="51" height="47" viewBox="0 0 51 47" fill="none" xmlns="http://www.w3.org/2000/svg">
<path d="M10.9458 15.0758H1.50598C1.08703 15.0758 0.747559 15.4154 0.747559 15.8342V46.1603C0.747559 46.5792 1.08703 46.9187 1.50598 46.9187H10.9458C11.3647 46.9187 11.7042 46.5792 11.7042 46.1603V15.8342C11.7042 15.4154 11.3647 15.0758 10.9458 15.0758Z" fill="white"/>
<path d="M6.22909 0C2.79434 0 0 2.7913 0 6.22226C0 9.65474 2.79434 12.4471 6.22909 12.4471C9.66111 12.4471 12.4532 9.65459 12.4532 6.22226C12.4533 2.7913 9.66111 0 6.22909 0Z" fill="white"/>
<path d="M38.3411 14C34.5396 14 31.7294 15.65 30.0249 17.5248V15.5309C30.0249 15.1069 29.6845 14.763 29.2644 14.763H20.1999C19.7798 14.763 19.4395 15.1069 19.4395 15.5309V46.232C19.4395 46.6562 19.7798 46.9998 20.1999 46.9998H29.6444C30.0644 46.9998 30.4048 46.6562 30.4048 46.232V31.0421C30.4048 25.9234 31.7819 23.9293 35.3159 23.9293C39.1647 23.9293 39.4706 27.1261 39.4706 31.3054V46.2322C39.4706 46.6563 39.811 47 40.231 47H49.679C50.0991 47 50.4395 46.6563 50.4395 46.2322V29.3921C50.4395 21.7808 49.002 14 38.3411 14Z" fill="white"/>
</svg>
